<svg version="1.1" xmlns="http://www.w3.org/2000/svg" xmlns:xlink="http://www.w3.org/1999/xlink" width="148.71813" height="141.87746" viewBox="0,0,148.71813,141.87746"><defs><linearGradient x1="215.25216" y1="112.30342" x2="215.25216" y2="247.42757" gradientUnits="userSpaceOnUse" id="color-1"><stop offset="0" stop-color="#ff0000"/><stop offset="1" stop-color="#ff6500"/></linearGradient><linearGradient x1="264.74767" y1="112.30456" x2="264.74767" y2="247.42651" gradientUnits="userSpaceOnUse" id="color-2"><stop offset="0" stop-color="#ff0000"/><stop offset="1" stop-color="#ff6500"/></linearGradient><linearGradient x1="239.99984" y1="204.11254" x2="239.99984" y2="247.69659" gradientUnits="userSpaceOnUse" id="color-3"><stop offset="0" stop-color="#ff4200"/><stop offset="1" stop-color="#ff6500"/></linearGradient></defs><g transform="translate(-165.67496,-109.06913)"><g data-paper-data="{&quot;isPaintingLayer&quot;:true}" fill-rule="nonzero" stroke="#ffffff" stroke-width="6.5" stroke-linecap="round" stroke-linejoin="round" stroke-miterlimit="4" stroke-dasharray="" stroke-dashoffset="0" style="mix-blend-mode: normal"><path d="M245.24331,112.98018c1.40874,0.35967 2.77794,0.85941 4.08715,1.49173c0.65468,0.31627 1.29313,0.6651 1.91294,1.04519c1.23997,0.75969 2.40079,1.64158 3.46512,2.63247c1.06405,0.99085 2.02629,2.0857 2.87232,3.26817c1.26997,1.77612 2.26583,3.733 2.95423,5.80509c0.22925,0.68988 0.42384,1.3908 0.58304,2.10013c0.15922,0.70902 0.28288,1.42555 0.3705,2.14693c0.08752,0.72107 0.13892,1.44608 0.15404,2.17228c0.04574,2.18328 -0.23691,4.36103 -0.83849,6.46029c-0.20015,0.69835 -0.43509,1.38625 -0.70395,2.06113c-0.26839,0.67506 -0.57037,1.33628 -0.90479,1.98118l-49.49441,92.0781c-1.82211,3.27727 -4.45898,6.02897 -7.65563,7.98907c-0.61917,0.38003 -1.25697,0.72887 -1.91098,1.0452c-1.30984,0.63245 -2.67971,1.13219 -4.08911,1.49173c-0.70344,0.17974 -1.41542,0.32422 -2.13328,0.43289c-0.7187,0.10891 -1.4424,0.1818 -2.16838,0.2184c-2.18091,0.10949 -4.36589,-0.1094 -6.48174,-0.64935c-1.40874,-0.35967 -2.77794,-0.8594 -4.08715,-1.49173c-1.3097,-0.63219 -2.55283,-1.39387 -3.71082,-2.27367c-0.57815,-0.43994 -1.13394,-0.90853 -1.66528,-1.40399c-0.53207,-0.495 -1.03905,-1.01629 -1.51903,-1.56193c-0.95964,-1.09236 -1.80756,-2.27801 -2.53108,-3.53922c-0.36173,-0.63051 -0.69169,-1.2787 -0.98864,-1.94218c-0.29692,-0.66306 -0.5605,-1.34054 -0.78974,-2.02993c-0.92005,-2.76704 -1.27546,-5.69058 -1.04519,-8.59747c0.11518,-1.4497 0.37517,-2.88424 0.7761,-4.28216c0.20014,-0.69835 0.43509,-1.38625 0.70395,-2.06114c0.26902,-0.6751 0.57165,-1.33631 0.90674,-1.98117l49.49441,-92.07615c0.04689,-0.08482 0.09434,-0.16932 0.14235,-0.2535c0.36116,-0.63021 0.7536,-1.24196 1.17584,-1.83298c0.42302,-0.59098 0.87532,-1.16044 1.35523,-1.70623c0.95912,-1.09298 2.02523,-2.08723 3.18237,-2.96787c0.57841,-0.43986 1.17846,-0.85052 1.79788,-1.23044c0.61985,-0.37942 1.25829,-0.7276 1.91293,-1.04324c0.65425,-0.31668 1.32393,-0.60043 2.00653,-0.85019c1.36586,-0.49853 2.77818,-0.85912 4.21586,-1.07639c0.71806,-0.10885 1.4411,-0.18174 2.16643,-0.2184c2.18091,-0.10949 4.36589,0.1094 6.48174,0.64935z" fill="url(#color-1)"/><path d="M239.34851,112.31913c0.72607,-0.02656 1.45302,-0.0168 2.17812,0.02925c0.72514,0.04577 1.44753,0.12777 2.16448,0.2457c0.71706,0.11845 1.42774,0.27268 2.12938,0.46214c0.7017,0.1889 1.3935,0.41278 2.07283,0.67079c1.35906,0.51722 2.66294,1.16916 3.89216,1.94608c0.61463,0.38797 1.20947,0.80643 1.78228,1.25384c0.57267,0.44738 1.1226,0.92312 1.64773,1.42544c1.05045,1.00531 1.99766,2.11322 2.82748,3.30717c0.41478,0.59723 0.79941,1.21485 1.15245,1.85053l49.49442,92.07615c3.82735,7.36898 3.13472,16.27259 -1.78618,22.96103c-0.43046,0.58549 -0.88993,1.14909 -1.37669,1.68868c-0.48682,0.53947 -1.0003,1.05426 -1.53855,1.54244c-2.70461,2.45276 -5.98209,4.18672 -9.5315,5.04266c-1.41382,0.34029 -2.85816,0.53822 -4.3114,0.59084c-5.13473,0.18826 -10.17087,-1.44372 -14.21926,-4.6078c-0.572,-0.44744 -1.12128,-0.92317 -1.64578,-1.42544c-1.5774,-1.50953 -2.91901,-3.24751 -3.97991,-5.15574l-49.49442,-92.0781c-0.37964,-0.73101 -0.71753,-1.48296 -1.01204,-2.25223c-0.78085,-2.03911 -1.25085,-4.18399 -1.39424,-6.36278c-0.048,-0.725 -0.05971,-1.45195 -0.03511,-2.17812c0.05006,-1.45298 0.24537,-2.89732 0.58305,-4.3114c0.33748,-1.41437 0.81566,-2.79142 1.42739,-4.11056c0.30563,-0.65934 0.64405,-1.30299 1.01399,-1.92853c0.74017,-1.25177 1.60376,-2.42631 2.57788,-3.50607c0.97424,-1.07943 2.05406,-2.05865 3.22332,-2.92302c2.34504,-1.73278 5.01395,-2.97738 7.84867,-3.66011c1.41312,-0.34082 2.8568,-0.53941 4.30946,-0.5928z" fill="url(#color-2)"/><path d="M289.49423,204.11254c0.8236,0.01192 1.64585,0.0705 2.46282,0.1755c0.7203,0.09226 1.43553,0.22048 2.14303,0.38415c1.4167,0.32807 2.79703,0.7971 4.12031,1.40009c0.66172,0.30094 1.30798,0.63481 1.93632,1.00035c0.62785,0.36582 1.23701,0.76281 1.82518,1.18948c0.58789,0.42645 1.15409,0.88201 1.69648,1.36499c0.54256,0.4834 1.06061,0.99363 1.55219,1.52879c0.98427,1.07024 1.85897,2.23628 2.61102,3.48072c1.88769,3.12554 2.95986,6.67526 3.11802,10.32319c0.06324,1.45275 -0.01907,2.90819 -0.24571,4.34456c-0.22714,1.43672 -0.59752,2.84708 -1.10564,4.21001c-0.25377,0.68084 -0.54143,1.34857 -0.86189,2.00069c-0.64125,1.30468 -1.41143,2.54193 -2.29903,3.69327c-0.44332,0.57572 -0.91515,1.1289 -1.41373,1.65748c-0.99804,1.05759 -2.09941,2.01265 -3.28767,2.85087c-2.38316,1.68025 -5.07925,2.86517 -7.92863,3.48461c-0.70993,0.15404 -1.42712,0.27249 -2.14888,0.3549c-0.72195,0.08302 -1.4476,0.12988 -2.17422,0.1404h-98.98884c-0.82294,-0.01199 -1.64455,-0.07058 -2.46088,-0.1755c-0.72095,-0.09221 -1.43683,-0.22041 -2.14498,-0.38415c-1.41671,-0.32806 -2.79703,-0.7971 -4.12031,-1.40009c-1.98713,-0.90485 -3.82701,-2.10317 -5.458,-3.55482c-0.54256,-0.4834 -1.06061,-0.99363 -1.55219,-1.52879c-0.98428,-1.07024 -1.85898,-2.23628 -2.61103,-3.48072c-0.75163,-1.24485 -1.3768,-2.5618 -1.86614,-3.93116c-0.48974,-1.36936 -0.84119,-2.7843 -1.04909,-4.22366c-0.1037,-0.71896 -0.17138,-1.44265 -0.2028,-2.16837c-0.12637,-2.91321 0.33315,-5.82216 1.35133,-8.55457c0.76252,-2.04558 1.82806,-3.96498 3.16092,-5.69394c0.44332,-0.57572 0.91516,-1.12891 1.41374,-1.65749c2.00191,-2.12011 4.4089,-3.81694 7.07843,-4.99c0.66523,-0.29248 1.34467,-0.55149 2.03578,-0.77609c0.69076,-0.22471 1.39233,-0.41474 2.10208,-0.56939c1.42091,-0.3089 2.86916,-0.47483 4.32311,-0.4953z" fill="url(#color-3)"/></g></g></svg>