<svg version="1.1" viewBox="0.0 0.0 960.0 720.0" fill="none" stroke="none" stroke-linecap="square" stroke-miterlimit="10" xmlns:xlink="http://www.w3.org/1999/xlink" xmlns="http://www.w3.org/2000/svg"><clipPath id="p.0"><path d="m0 0l960.0 0l0 720.0l-960.0 0l0 -720.0z" clip-rule="nonzero"/></clipPath><g clip-path="url(#p.0)"><path fill="#000000" fill-opacity="0.0" d="m0 0l960.0 0l0 720.0l-960.0 0z" fill-rule="evenodd"/><path fill="#000000" d="m-1.3412074 -1.8215224l960.0 0l0 720.0l-960.0 0z" fill-rule="evenodd"/><g filter="url(#shadowFilter-p.1)"><use xlink:href="#p.1" transform=""/></g><defs><filter id="shadowFilter-p.1" filterUnits="userSpaceOnUse"><feGaussianBlur in="SourceAlpha" stdDeviation="15.0" result="blur"/><feComponentTransfer in="blur" color-interpolation-filters="sRGB"><feFuncR type="linear" slope="0" intercept="0.0"/><feFuncG type="linear" slope="0" intercept="1.0"/><feFuncB type="linear" slope="0" intercept="1.0"/><feFuncA type="linear" slope="1.0" intercept="0"/></feComponentTransfer></filter></defs><g id="p.1"><path fill="#000000" fill-opacity="0.0" d="m218.01312 299.2966l521.2913 0l0 117.76376l-521.2913 0z" fill-rule="evenodd"/><path fill="#00ffff" d="m228.935 344.2216q0 -3.828125 1.453125 -7.171875q1.46875 -3.359375 3.96875 -5.859375q2.5 -2.5 5.84375 -3.953125q3.359375 -1.46875 7.1875 -1.46875l27.359375 0l0 14.515625l-27.359375 0q-0.828125 0 -1.546875 0.3125q-0.71875 0.296875 -1.25 0.828125q-0.53125 0.53125 -0.84375 1.25q-0.296875 0.71875 -0.296875 1.546875q0 0.84375 0.296875 1.578125q0.3125 0.71875 0.84375 1.25q0.53125 0.53125 1.25 0.84375q0.71875 0.296875 1.546875 0.296875l11.203125 0q3.828125 0 7.1875 1.4375q3.359375 1.4375 5.875 3.953125q2.515625 2.515625 3.953125 5.875q1.4375 3.359375 1.4375 7.1875q0 3.8125 -1.4375 7.171875q-1.4375 3.34375 -3.953125 5.859375q-2.5 2.5 -5.875 3.96875q-3.359375 1.453125 -7.1875 1.453125l-26.53125 0l0 -14.53125l26.53125 0q0.828125 0 1.546875 -0.296875q0.71875 -0.3125 1.25 -0.84375q0.546875 -0.53125 0.84375 -1.234375q0.296875 -0.71875 0.296875 -1.546875q0 -0.828125 -0.3125 -1.546875q-0.296875 -0.71875 -0.828125 -1.25q-0.53125 -0.53125 -1.25 -0.828125q-0.71875 -0.3125 -1.546875 -0.3125l-11.203125 0q-3.828125 0 -7.1875 -1.453125q-3.34375 -1.46875 -5.84375 -3.96875q-2.5 -2.5 -3.96875 -5.875q-1.453125 -3.375 -1.453125 -7.1875zm66.66406 -3.9375l0 19.109375l9.5625 0q1.953125 0 3.671875 -0.734375q1.734375 -0.75 3.03125 -2.046875q1.3125 -1.3125 2.0625 -3.0625q0.75 -1.75 0.75 -3.703125q0 -1.96875 -0.75 -3.703125q-0.75 -1.75 -2.0625 -3.046875q-1.296875 -1.3125 -3.03125 -2.0625q-1.71875 -0.75 -3.671875 -0.75l-9.5625 0zm0 44.8125l-14.515625 0l0 -59.328125l24.078125 0q3.3125 0 6.375 0.859375q3.0625 0.859375 5.71875 2.4375q2.671875 1.578125 4.875 3.78125q2.203125 2.1875 3.765625 4.875q1.578125 2.671875 2.4375 5.734375q0.859375 3.0625 0.859375 6.390625q0 4.953125 -1.890625 9.34375q-1.890625 4.375 -5.15625 7.640625q-3.265625 3.265625 -7.65625 5.15625q-4.375 1.890625 -9.328125 1.890625l-9.5625 0l0 11.21875zm69.82031 -25.703125l0 -9.546875q0 -1.96875 -0.75 -3.703125q-0.75 -1.75 -2.0625 -3.046875q-1.296875 -1.3125 -3.046875 -2.0625q-1.734375 -0.75 -3.703125 -0.75q-1.953125 0 -3.703125 0.75q-1.75 0.75 -3.0625 2.046875q-1.296875 1.296875 -2.046875 3.046875q-0.734375 1.75 -0.734375 3.71875l0 9.546875l19.109375 0zm14.515625 25.703125l-14.515625 0l0 -11.21875l-19.109375 0l0 11.21875l-14.484375 0l0 -35.25q0 -5.0 1.890625 -9.375q1.890625 -4.375 5.125 -7.640625q3.25 -3.28125 7.640625 -5.171875q4.390625 -1.890625 9.375 -1.890625q5.0 0 9.375 1.890625q4.390625 1.890625 7.65625 5.15625q3.265625 3.265625 5.15625 7.65625q1.890625 4.375 1.890625 9.375l0 35.25zm54.9375 -7.0625q-5.1875 4.46875 -10.3125 6.375q-5.125 1.90625 -10.609375 1.90625q-4.21875 0 -8.125 -1.109375q-3.90625 -1.09375 -7.3125 -3.09375q-3.390625 -2.015625 -6.203125 -4.8125q-2.796875 -2.8125 -4.8125 -6.203125q-2.0 -3.40625 -3.09375 -7.3125q-1.09375 -3.90625 -1.09375 -8.125q0 -4.203125 1.09375 -8.125q1.09375 -3.9375 3.09375 -7.328125q2.015625 -3.40625 4.8125 -6.203125q2.8125 -2.8125 6.203125 -4.8125q3.40625 -2.015625 7.3125 -3.109375q3.90625 -1.09375 8.125 -1.09375q5.484375 0 10.609375 1.875q5.125 1.875 10.3125 6.40625l-7.796875 12.828125q-3.703125 -4.0 -6.75 -5.296875q-3.046875 -1.296875 -6.375 -1.296875q-3.375 0 -6.3125 1.28125q-2.9375 1.265625 -5.140625 3.453125q-2.203125 2.1875 -3.484375 5.140625q-1.265625 2.953125 -1.265625 6.28125q0 3.328125 1.265625 6.25q1.28125 2.921875 3.484375 5.125q2.203125 2.203125 5.140625 3.484375q2.9375 1.265625 6.3125 1.265625q3.328125 0 6.375 -1.296875q3.046875 -1.296875 6.75 -5.296875l7.796875 12.84375zm44.398438 7.0625l-41.703125 0l0 -59.328125l41.703125 0l0 14.515625l-27.1875 0l0 7.90625l18.40625 0l0 14.515625l-18.40625 0l0 7.859375l27.1875 0l0 14.53125zm74.80469 -6.5625q-4.71875 4.015625 -9.796875 5.90625q-5.078125 1.875 -10.5625 1.875q-4.21875 0 -8.125 -1.109375q-3.90625 -1.09375 -7.296875 -3.09375q-3.375 -2.0 -6.1875 -4.78125q-2.8125 -2.796875 -4.796875 -6.203125q-1.96875 -3.421875 -3.0625 -7.34375q-1.09375 -3.921875 -1.09375 -8.125q0 -4.21875 1.09375 -8.09375q1.09375 -3.890625 3.0625 -7.28125q1.984375 -3.40625 4.796875 -6.203125q2.8125 -2.796875 6.1875 -4.765625q3.390625 -1.984375 7.296875 -3.078125q3.90625 -1.09375 8.125 -1.09375q5.484375 0 10.5625 1.875q5.078125 1.875 10.28125 6.3125l-7.6875 12.796875q-3.796875 -3.875 -6.8125 -5.203125q-3.015625 -1.34375 -6.34375 -1.34375q-3.328125 0 -6.25 1.28125q-2.921875 1.265625 -5.125 3.453125q-2.203125 2.1875 -3.484375 5.109375q-1.265625 2.90625 -1.265625 6.234375q0 3.375 1.265625 6.3125q1.28125 2.9375 3.484375 5.140625q2.203125 2.203125 5.125 3.484375q2.921875 1.265625 6.25 1.265625q1.90625 0 3.703125 -0.453125q1.8125 -0.46875 2.53125 -0.828125l0 -16.578125l14.125 0l0 24.53125zm38.296875 -19.140625l0 -9.546875q0 -1.96875 -0.75 -3.703125q-0.75 -1.75 -2.0625 -3.046875q-1.296875 -1.3125 -3.046875 -2.0625q-1.734375 -0.75 -3.703125 -0.75q-1.953125 0 -3.703125 0.75q-1.75 0.75 -3.0625 2.046875q-1.296875 1.296875 -2.046875 3.046875q-0.734375 1.75 -0.734375 3.71875l0 9.546875l19.109375 0zm14.515625 25.703125l-14.515625 0l0 -11.21875l-19.109375 0l0 11.21875l-14.484375 0l0 -35.25q0 -5.0 1.890625 -9.375q1.890625 -4.375 5.125 -7.640625q3.25 -3.28125 7.640625 -5.171875q4.390625 -1.890625 9.375 -1.890625q5.0 0 9.375 1.890625q4.390625 1.890625 7.65625 5.15625q3.265625 3.265625 5.15625 7.65625q1.890625 4.375 1.890625 9.375l0 35.25zm65.3125 0l-14.484375 0l0 -41.65625q0 -0.828125 -0.3125 -1.53125q-0.3125 -0.71875 -0.859375 -1.25q-0.53125 -0.546875 -1.25 -0.84375q-0.71875 -0.3125 -1.546875 -0.3125q-0.828125 0 -1.546875 0.296875q-0.703125 0.296875 -1.234375 0.84375q-0.53125 0.53125 -0.84375 1.25q-0.296875 0.71875 -0.296875 1.546875l0 41.65625l-14.53125 0l0 -41.65625q0 -0.828125 -0.3125 -1.546875q-0.296875 -0.71875 -0.828125 -1.25q-0.53125 -0.546875 -1.25 -0.84375q-0.703125 -0.296875 -1.53125 -0.296875q-0.828125 0 -1.546875 0.3125q-0.71875 0.296875 -1.25 0.828125q-0.53125 0.53125 -0.84375 1.25q-0.296875 0.71875 -0.296875 1.546875l0 41.65625l-14.515625 0l0 -41.65625q0 -3.828125 1.4375 -7.1875q1.4375 -3.359375 3.953125 -5.875q2.515625 -2.515625 5.875 -3.953125q3.359375 -1.4375 7.1875 -1.4375q3.4375 0 6.609375 1.21875q3.1875 1.21875 4.59375 2.515625q1.421875 -1.296875 4.578125 -2.515625q3.15625 -1.21875 6.59375 -1.21875q3.828125 0 7.1875 1.4375q3.359375 1.4375 5.875 3.953125q2.515625 2.515625 3.953125 5.875q1.4375 3.359375 1.4375 7.1875l0 41.65625zm48.398438 0l-41.703125 0l0 -59.328125l41.703125 0l0 14.515625l-27.1875 0l0 7.90625l18.40625 0l0 14.515625l-18.40625 0l0 7.859375l27.1875 0l0 14.53125z" fill-rule="nonzero"/></g><g filter="url(#shadowFilter-p.2)"><use xlink:href="#p.2" transform=""/></g><defs><filter id="shadowFilter-p.2" filterUnits="userSpaceOnUse"><feGaussianBlur in="SourceAlpha" stdDeviation="10.5" result="blur"/><feComponentTransfer in="blur" color-interpolation-filters="sRGB"><feFuncR type="linear" slope="0" intercept="0.0"/><feFuncG type="linear" slope="0" intercept="1.0"/><feFuncB type="linear" slope="0" intercept="1.0"/><feFuncA type="linear" slope="1.0" intercept="0"/></feComponentTransfer></filter></defs><g id="p.2"><path fill="#00ffff" d="m210.85564 326.91602l7.1496124 0l0 58.960632l-7.1496124 0z" fill-rule="evenodd"/></g><g filter="url(#shadowFilter-p.3)"><use xlink:href="#p.3" transform=""/></g><defs><filter id="shadowFilter-p.3" filterUnits="userSpaceOnUse"><feGaussianBlur in="SourceAlpha" stdDeviation="10.5" result="blur"/><feComponentTransfer in="blur" color-interpolation-filters="sRGB"><feFuncR type="linear" slope="0" intercept="0.0"/><feFuncG type="linear" slope="0" intercept="1.0"/><feFuncB type="linear" slope="0" intercept="1.0"/><feFuncA type="linear" slope="1.0" intercept="0"/></feComponentTransfer></filter></defs><g id="p.3"><path fill="#00ffff" d="m194.85564 354.8609l7.1496124 0l0 31.02362l-7.1496124 0z" fill-rule="evenodd"/></g><g filter="url(#shadowFilter-p.4)"><use xlink:href="#p.4" transform=""/></g><defs><filter id="shadowFilter-p.4" filterUnits="userSpaceOnUse"><feGaussianBlur in="SourceAlpha" stdDeviation="10.5" result="blur"/><feComponentTransfer in="blur" color-interpolation-filters="sRGB"><feFuncR type="linear" slope="0" intercept="0.0"/><feFuncG type="linear" slope="0" intercept="1.0"/><feFuncB type="linear" slope="0" intercept="1.0"/><feFuncA type="linear" slope="1.0" intercept="0"/></feComponentTransfer></filter></defs><g id="p.4"><path fill="#00ffff" d="m178.85564 375.8609l7.1496124 0l0 10.015747l-7.1496124 0z" fill-rule="evenodd"/></g><g filter="url(#shadowFilter-p.5)"><use xlink:href="#p.5" transform=""/></g><defs><filter id="shadowFilter-p.5" filterUnits="userSpaceOnUse"><feGaussianBlur in="SourceAlpha" stdDeviation="7.0" result="blur"/><feComponentTransfer in="blur" color-interpolation-filters="sRGB"><feFuncR type="linear" slope="0" intercept="0.0"/><feFuncG type="linear" slope="0" intercept="1.0"/><feFuncB type="linear" slope="0" intercept="1.0"/><feFuncA type="linear" slope="1.0" intercept="0"/></feComponentTransfer></filter></defs><g id="p.5"><path fill="#00ffff" d="m738.00525 326.91602l-7.149597 0l0 58.960632l7.149597 0z" fill-rule="evenodd"/></g><g filter="url(#shadowFilter-p.6)"><use xlink:href="#p.6" transform=""/></g><defs><filter id="shadowFilter-p.6" filterUnits="userSpaceOnUse"><feGaussianBlur in="SourceAlpha" stdDeviation="7.0" result="blur"/><feComponentTransfer in="blur" color-interpolation-filters="sRGB"><feFuncR type="linear" slope="0" intercept="0.0"/><feFuncG type="linear" slope="0" intercept="1.0"/><feFuncB type="linear" slope="0" intercept="1.0"/><feFuncA type="linear" slope="1.0" intercept="0"/></feComponentTransfer></filter></defs><g id="p.6"><path fill="#00ffff" d="m754.00525 354.8609l-7.149597 0l0 31.02362l7.149597 0z" fill-rule="evenodd"/></g><g filter="url(#shadowFilter-p.7)"><use xlink:href="#p.7" transform=""/></g><defs><filter id="shadowFilter-p.7" filterUnits="userSpaceOnUse"><feGaussianBlur in="SourceAlpha" stdDeviation="7.0" result="blur"/><feComponentTransfer in="blur" color-interpolation-filters="sRGB"><feFuncR type="linear" slope="0" intercept="0.0"/><feFuncG type="linear" slope="0" intercept="1.0"/><feFuncB type="linear" slope="0" intercept="1.0"/><feFuncA type="linear" slope="1.0" intercept="0"/></feComponentTransfer></filter></defs><g id="p.7"><path fill="#00ffff" d="m770.00525 375.8609l-7.149597 0l0 10.015747l7.149597 0z" fill-rule="evenodd"/></g></g></svg>