<svg version="1.1" viewBox="0.0 0.0 960.0 720.0" fill="none" stroke="none" stroke-linecap="square" stroke-miterlimit="10" xmlns:xlink="http://www.w3.org/1999/xlink" xmlns="http://www.w3.org/2000/svg"><clipPath id="p.0"><path d="m0 0l960.0 0l0 720.0l-960.0 0l0 -720.0z" clip-rule="nonzero"/></clipPath><g clip-path="url(#p.0)"><path fill="#000000" fill-opacity="0.0" d="m0 0l960.0 0l0 720.0l-960.0 0z" fill-rule="evenodd"/><defs><linearGradient id="p.1" gradientUnits="userSpaceOnUse" gradientTransform="matrix(26.83288048652136 0.0 0.0 26.83288048652136 0.0 0.0)" spreadMethod="pad" x1="-0.09566356377394598" y1="-0.022333633709460426" x2="-0.09576069868384218" y2="26.810546852636087"><stop offset="0.0" stop-color="#ff0000"/><stop offset="1.0" stop-color="#ff00ff"/></linearGradient></defs><path fill="url(#p.1)" d="m-2.566929 -0.5958005l960.0 0l0 720.0l-960.0 0z" fill-rule="evenodd"/><path fill="#000000" fill-opacity="0.0" d="m291.6063 310.20532l49.79471 -86.2374l86.237366 -49.794693l99.58942 0l86.237366 49.794693l49.794678 86.2374l0 99.589355l-49.794678 86.2374l-86.237366 49.79471l-99.58942 0l-86.237366 -49.79471l-49.79471 -86.2374z" fill-rule="evenodd"/><path stroke="#ffffff" stroke-width="24.0" stroke-linejoin="round" stroke-linecap="butt" d="m291.6063 310.20532l49.79471 -86.2374l86.237366 -49.794693l99.58942 0l86.237366 49.794693l49.794678 86.2374l0 99.589355l-49.794678 86.2374l-86.237366 49.79471l-99.58942 0l-86.237366 -49.79471l-49.79471 -86.2374z" fill-rule="evenodd"/><path fill="#000000" fill-opacity="0.0" d="m395.1496 228.15749l164.56696 0l0 231.68504l-164.56696 0z" fill-rule="evenodd"/><path fill="#ffffff" d="m416.30585 441.95746q-4.90625 0 -7.046875 -4.046875q-2.125 -4.0625 -0.421875 -7.90625l62.71875 -148.89062q2.359375 -5.765625 8.109375 -5.765625q5.546875 0 7.890625 5.765625l62.9375 149.10938q1.921875 4.046875 -0.53125 7.890625q-2.453125 3.84375 -6.9375 3.84375q-2.5625 0 -4.59375 -1.28125q-2.015625 -1.28125 -3.296875 -3.84375l-58.671875 -142.28125l6.625 0l-59.09375 142.28125q-1.078125 2.5625 -3.109375 3.84375q-2.015625 1.28125 -4.578125 1.28125zm14.078125 -39.671875l6.40625 -14.296875l86.609375 0l6.40625 14.296875l-99.421875 0z" fill-rule="nonzero"/></g></svg>
