<svg version="1.1" viewBox="0.0 0.0 960.0 720.0" fill="none" stroke="none" stroke-linecap="square" stroke-miterlimit="10" xmlns:xlink="http://www.w3.org/1999/xlink" xmlns="http://www.w3.org/2000/svg"><clipPath id="p.0"><path d="m0 0l960.0 0l0 720.0l-960.0 0l0 -720.0z" clip-rule="nonzero"/></clipPath><g clip-path="url(#p.0)"><path fill="#000000" fill-opacity="0.0" d="m0 0l960.0 0l0 720.0l-960.0 0z" fill-rule="evenodd"/><path fill="#ffffff" d="m-6.2467194 -3.0498688l966.2362 0l0 720.0l-966.2362 0z" fill-rule="evenodd"/><g filter="url(#shadowFilter-p.1)"><use xlink:href="#p.1" transform=""/></g><defs><filter id="shadowFilter-p.1" filterUnits="userSpaceOnUse"><feGaussianBlur in="SourceAlpha" stdDeviation="15.0" result="blur"/><feComponentTransfer in="blur" color-interpolation-filters="sRGB"><feFuncR type="linear" slope="0" intercept="0.3254902"/><feFuncG type="linear" slope="0" intercept="1.0"/><feFuncB type="linear" slope="0" intercept="0.78431374"/><feFuncA type="linear" slope="0.5" intercept="0"/></feComponentTransfer></filter></defs><g id="p.1"><path fill="#000000" fill-opacity="0.0" d="m217.77034 308.7533l637.7638 0l0 82.42517l-637.7638 0z" fill-rule="evenodd"/><path fill="#000000" d="m229.33284 394.55328l25.28125 -60.234375l0.46875 0l25.20314 60.234375l-8.875 0l-18.875015 -48.078125l5.5156403 -3.609375l-21.125015 51.6875l-7.59375 0zm14.796875 -21.921875l21.51564 0l2.5625 6.71875l-26.312515 0l2.234375 -6.71875zm47.92369 21.921875l0 -26.484375l-5.6875 0l0 -6.640625l5.6875 0l0 -14.0q0 -7.1875 3.234375 -11.03125q3.25 -3.84375 9.5625 -3.84375q1.6875 0 3.71875 0.484375q2.046875 0.46875 3.5625 1.59375l-3.125 5.359375q-0.71875 -0.71875 -1.59375 -1.0q-0.875 -0.28125 -1.765625 -0.28125q-2.953125 0 -4.5625 2.0q-1.59375 2.0 -1.59375 6.796875l0 13.921875l10.484375 0l0 6.640625l-10.484375 0l0 26.484375l-7.4375 0zm24.40625 0l0 -26.484375l-5.6875 0l0 -6.640625l5.6875 0l0 -14.0q0 -7.1875 3.234375 -11.03125q3.25 -3.84375 9.5625 -3.84375q1.6875 0 3.71875 0.484375q2.046875 0.46875 3.5625 1.59375l-3.125 5.359375q-0.71875 -0.71875 -1.59375 -1.0q-0.875 -0.28125 -1.765625 -0.28125q-2.953125 0 -4.5625 2.0q-1.59375 2.0 -1.59375 6.796875l0 13.921875l10.484375 0l0 6.640625l-10.484375 0l0 26.484375l-7.4375 0zm23.921875 -33.125l7.4375 0l0 33.125l-7.4375 0l0 -33.125zm-0.5625 -12.0q0 -1.75 1.390625 -2.953125q1.40625 -1.203125 3.09375 -1.203125q1.671875 0 2.984375 1.203125q1.328125 1.203125 1.328125 2.953125q0 1.84375 -1.328125 3.015625q-1.3125 1.15625 -2.984375 1.15625q-1.6875 0 -3.09375 -1.203125q-1.390625 -1.203125 -1.390625 -2.96875zm27.596191 12.0l0.640625 8.078125l-0.328125 -1.265625q1.609375 -3.6875 5.203125 -5.890625q3.59375 -2.203125 8.3125 -2.203125q4.734375 0 7.734375 2.765625q3.0 2.765625 3.078125 7.15625l0 24.484375l-7.53125 0l0 -21.84375q-0.078125 -2.71875 -1.5625 -4.4375q-1.46875 -1.71875 -4.59375 -1.71875q-2.875 0 -5.203125 1.609375q-2.3125 1.59375 -3.640625 4.390625q-1.3125 2.796875 -1.3125 6.484375l0 15.515625l-7.4375 0l0 -33.125l6.640625 0zm37.599335 0l7.4375 0l0 33.125l-7.4375 0l0 -33.125zm-0.5625 -12.0q0 -1.75 1.390625 -2.953125q1.40625 -1.203125 3.09375 -1.203125q1.671875 0 2.984375 1.203125q1.328125 1.203125 1.328125 2.953125q0 1.84375 -1.328125 3.015625q-1.3125 1.15625 -2.984375 1.15625q-1.6875 0 -3.09375 -1.203125q-1.390625 -1.203125 -1.390625 -2.96875zm24.085602 -2.5625l7.4375 0l0 14.734375l9.109375 0l0 5.828125l-9.109375 0l0 27.125l-7.4375 0l0 -27.125l-6.09375 0l0 -5.828125l6.09375 0l0 -14.734375zm28.31372 63.609375l21.84375 -49.046875l6.875 0l-21.359375 49.046875l-7.359375 0zm8.15625 -15.6875l-15.921875 -33.359375l8.40625 0l13.359375 29.609375l-5.84375 3.75z" fill-rule="nonzero"/><path fill="#00e498" d="m520.68256 394.55328l0 -57.84375l15.765625 0q8.5625 0 14.59375 2.640625q6.046875 2.640625 9.71875 6.96875q3.6875 4.3125 5.40625 9.5625q1.71875 5.234375 1.71875 10.4375q0 6.546875 -2.28125 11.75q-2.28125 5.203125 -6.28125 8.890625q-4.0 3.671875 -9.15625 5.640625q-5.15625 1.953125 -10.921875 1.953125l-18.5625 0zm7.765625 -7.4375l9.28125 0q4.796875 0 8.828125 -1.4375q4.046875 -1.4375 7.046875 -4.15625q3.0 -2.734375 4.671875 -6.6875q1.6875 -3.96875 1.6875 -9.0q0 -5.359375 -1.765625 -9.390625q-1.75 -4.046875 -4.796875 -6.765625q-3.03125 -2.71875 -6.875 -4.125q-3.84375 -1.40625 -8.078125 -1.40625l-10.0 0l0 42.96875zm66.005554 8.234375q-5.6875 0 -9.765625 -2.28125q-4.078125 -2.28125 -6.28125 -6.234375q-2.203125 -3.96875 -2.203125 -9.078125q0 -4.890625 2.484375 -8.890625q2.484375 -4.0 6.640625 -6.390625q4.15625 -2.40625 9.28125 -2.40625q6.5625 0 10.875 3.84375q4.328125 3.84375 5.84375 10.5625l-27.28125 9.59375l-1.75 -4.390625l22.390625 -8.171875l-1.59375 1.046875q-0.96875 -2.640625 -3.203125 -4.59375q-2.234375 -1.96875 -5.84375 -1.96875q-3.03125 0 -5.4375 1.484375q-2.40625 1.484375 -3.765625 4.046875q-1.359375 2.546875 -1.359375 5.828125q0 3.4375 1.4375 6.046875q1.453125 2.59375 3.96875 4.078125q2.515625 1.484375 5.71875 1.484375q2.15625 0 4.1875 -0.796875q2.046875 -0.8125 3.8125 -2.09375l3.4375 5.53125q-2.484375 1.671875 -5.5625 2.71875q-3.078125 1.03125 -6.03125 1.03125zm35.52185 -0.15625q-3.53125 0 -6.859375 -1.234375q-3.3125 -1.25 -5.46875 -3.71875l3.125 -4.328125q2.078125 2.0 4.28125 3.0q2.203125 1.0 4.359375 1.0q1.59375 0 2.953125 -0.390625q1.359375 -0.40625 2.203125 -1.328125q0.84375 -0.921875 0.84375 -2.515625q0 -1.765625 -1.171875 -2.796875q-1.15625 -1.046875 -2.953125 -1.6875q-1.796875 -0.640625 -3.796875 -1.203125q-4.078125 -1.359375 -6.25 -3.75q-2.15625 -2.40625 -2.15625 -5.84375q0 -2.640625 1.3125 -4.921875q1.328125 -2.28125 3.921875 -3.71875q2.609375 -1.4375 6.453125 -1.4375q3.4375 0 6.15625 0.84375q2.71875 0.828125 5.125 2.75l-2.96875 4.640625q-1.4375 -1.515625 -3.4375 -2.234375q-2.0 -0.71875 -3.59375 -0.8125q-1.359375 -0.078125 -2.609375 0.40625q-1.234375 0.484375 -2.03125 1.359375q-0.796875 0.875 -0.796875 2.078125q0 1.6875 1.109375 2.734375q1.125 1.03125 2.921875 1.640625q1.796875 0.59375 3.5625 1.234375q2.484375 0.71875 4.390625 1.921875q1.921875 1.1875 3.078125 2.953125q1.171875 1.765625 1.171875 4.40625q0 2.953125 -1.40625 5.484375q-1.390625 2.515625 -4.234375 4.0q-2.84375 1.46875 -7.234375 1.46875zm23.278748 -33.765625l7.4375 0l0 33.125l-7.4375 0l0 -33.125zm-0.5625 -12.0q0 -1.75 1.390625 -2.953125q1.40625 -1.203125 3.09375 -1.203125q1.671875 0 2.984375 1.203125q1.328125 1.203125 1.328125 2.953125q0 1.84375 -1.328125 3.015625q-1.3125 1.15625 -2.984375 1.15625q-1.6875 0 -3.09375 -1.203125q-1.390625 -1.203125 -1.390625 -2.96875zm36.80432 61.53125q-3.6875 0 -6.484375 -0.84375q-2.796875 -0.84375 -5.078125 -2.359375q-2.28125 -1.515625 -4.359375 -3.4375l4.3125 -5.046875q2.640625 2.484375 5.359375 3.84375q2.71875 1.359375 6.078125 1.359375q3.765625 0 6.359375 -1.25q2.609375 -1.234375 3.96875 -3.4375q1.359375 -2.1875 1.359375 -5.078125l0.078125 -8.953125l0.640625 1.4375q-1.4375 3.4375 -5.203125 5.796875q-3.75 2.359375 -9.125 2.359375q-4.546875 0 -8.359375 -2.3125q-3.796875 -2.328125 -6.078125 -6.28125q-2.28125 -3.96875 -2.28125 -8.921875q0 -5.203125 2.40625 -9.15625q2.40625 -3.96875 6.3125 -6.28125q3.921875 -2.328125 8.5625 -2.328125q4.40625 0 8.046875 1.8125q3.640625 1.796875 5.3125 4.59375l-0.390625 1.359375l0.796875 -6.40625l6.796875 0l0 33.359375q0 4.484375 -2.328125 8.15625q-2.3125 3.6875 -6.5625 5.84375q-4.234375 2.171875 -10.140625 2.171875zm-11.359375 -33.28125q0 3.1875 1.515625 5.828125q1.515625 2.640625 4.109375 4.171875q2.609375 1.515625 5.8125 1.515625q2.953125 0 5.3125 -1.078125q2.359375 -1.078125 3.953125 -2.953125q1.609375 -1.890625 2.25 -4.375l0 -6.546875q-0.71875 -2.40625 -2.40625 -4.203125q-1.671875 -1.796875 -4.0 -2.796875q-2.3125 -1.0 -5.109375 -1.0q-3.203125 0 -5.8125 1.4375q-2.59375 1.4375 -4.109375 4.046875q-1.515625 2.59375 -1.515625 5.953125zm49.91809 -16.25l0.640625 8.078125l-0.328125 -1.265625q1.609375 -3.6875 5.203125 -5.890625q3.59375 -2.203125 8.3125 -2.203125q4.734375 0 7.734375 2.765625q3.0 2.765625 3.078125 7.15625l0 24.484375l-7.53125 0l0 -21.84375q-0.078125 -2.71875 -1.5625 -4.4375q-1.46875 -1.71875 -4.59375 -1.71875q-2.875 0 -5.203125 1.609375q-2.3125 1.59375 -3.640625 4.390625q-1.3125 2.796875 -1.3125 6.484375l0 15.515625l-7.4375 0l0 -33.125l6.640625 0zm52.95868 33.921875q-5.6875 0 -9.765625 -2.28125q-4.078125 -2.28125 -6.28125 -6.234375q-2.203125 -3.96875 -2.203125 -9.078125q0 -4.890625 2.484375 -8.890625q2.484375 -4.0 6.640625 -6.390625q4.15625 -2.40625 9.28125 -2.40625q6.5625 0 10.875 3.84375q4.328125 3.84375 5.84375 10.5625l-27.28125 9.59375l-1.75 -4.390625l22.390625 -8.171875l-1.59375 1.046875q-0.96875 -2.640625 -3.203125 -4.59375q-2.234375 -1.96875 -5.84375 -1.96875q-3.03125 0 -5.4375 1.484375q-2.40625 1.484375 -3.765625 4.046875q-1.359375 2.546875 -1.359375 5.828125q0 3.4375 1.4375 6.046875q1.453125 2.59375 3.96875 4.078125q2.515625 1.484375 5.71875 1.484375q2.15625 0 4.1875 -0.796875q2.046875 -0.8125 3.8125 -2.09375l3.4375 5.53125q-2.484375 1.671875 -5.5625 2.71875q-3.078125 1.03125 -6.03125 1.03125zm32.881226 -33.921875l0.71875 9.609375l-0.40625 -1.28125q1.28125 -3.046875 3.71875 -5.15625q2.4375 -2.125 5.109375 -3.28125q2.6875 -1.171875 4.6875 -1.171875l-0.390625 7.359375q-3.765625 -0.234375 -6.609375 1.453125q-2.828125 1.671875 -4.46875 4.484375q-1.640625 2.796875 -1.640625 5.984375l0 15.125l-7.359375 0l0 -33.125l6.640625 0z" fill-rule="nonzero"/></g><path fill="#53ffc8" d="m113.52855 397.90814l43.433075 -75.18112l43.43306 75.18112z" fill-rule="evenodd"/><path fill="#53ffc8" d="m104.46588 405.14764l27.02362 -46.80316l27.02362 46.80316z" fill-rule="evenodd"/><path stroke="#ffffff" stroke-width="12.0" stroke-linejoin="round" stroke-linecap="butt" d="m104.46588 405.14764l27.02362 -46.80316l27.02362 46.80316z" fill-rule="evenodd"/></g></svg>
